<svg width="549" height="809" viewBox="0 0 549 809" fill="none" xmlns="http://www.w3.org/2000/svg">
<g opacity="0.2">
<path fill-rule="evenodd" clip-rule="evenodd" d="M319 523C446.025 523 549 420.025 549 293C549 165.975 446.025 63 319 63C191.975 63 89 165.975 89 293C89 420.025 191.975 523 319 523Z" fill="#FF9B21"/>
<path fill-rule="evenodd" clip-rule="evenodd" d="M459 809C481.644 809 500 790.644 500 768C500 745.356 481.644 727 459 727C436.356 727 418 745.356 418 768C418 790.644 436.356 809 459 809Z" fill="#2B44FF"/>
<path fill-rule="evenodd" clip-rule="evenodd" d="M281 0L330 49L281 98L232 49L281 0Z" fill="#2B44FF"/>
<path fill-rule="evenodd" clip-rule="evenodd" d="M145 690L169 714L145 738L121 714L145 690Z" fill="#FF9B21"/>
<path fill-rule="evenodd" clip-rule="evenodd" d="M492 63L504 75L492 87L480 75L492 63Z" fill="#2026A2"/>
</g>
<g filter="url(#filter0_d)">
<rect x="44" y="118.796" width="251" height="516" rx="36.45" transform="rotate(-2 44 118.796)" fill="#F2F2F2"/>
</g>
<path fill-rule="evenodd" clip-rule="evenodd" d="M79.6624 128.557C66.25 129.026 55.7569 140.278 56.2253 153.691L71.7457 598.138C72.2141 611.551 83.4666 622.044 96.879 621.576L276.444 615.305C289.856 614.837 300.349 603.584 299.881 590.172L284.36 145.724C283.892 132.312 272.639 121.818 259.227 122.287L231.234 123.264L231.375 127.313C231.64 134.913 225.694 141.29 218.094 141.555L122.728 144.885C115.128 145.151 108.752 139.205 108.486 131.604L108.345 127.556L79.6624 128.557Z" fill="#1F28CF"/>
<mask id="mask0" mask-type="alpha" maskUnits="userSpaceOnUse" x="62" y="107" width="338" height="515">
<rect x="62.9884" y="118.133" width="319" height="504" transform="rotate(-2 62.9884 118.133)" fill="white"/>
</mask>
<g mask="url(#mask0)">
<path fill-rule="evenodd" clip-rule="evenodd" d="M297.826 234.871C301.162 247.361 306.753 257.239 311.341 259.842C322.847 266.368 356.205 233.521 361.892 213.363C367.578 193.206 336.51 152.024 309.268 176.536C299.814 185.043 295.786 196.894 295.037 209.015L239.175 246.518L268.705 275.035L297.826 234.871Z" fill="#B28B67"/>
<path fill-rule="evenodd" clip-rule="evenodd" d="M377.432 204.305C371.094 210.868 360.764 211.254 353.945 205.337C349.131 202.897 343.553 199.133 337.925 194.383C336.577 196.806 334.742 199.265 332.352 201.739C330.242 203.924 327.763 206.008 325.046 207.932C325.214 205.464 324.538 203.095 322.982 201.592C318.63 197.389 312.147 198.039 308.48 201.836C303.827 206.654 303.246 212.83 307.043 217.036C296.603 220.519 286.433 220.915 281.374 216.029C271.763 206.748 277.321 187.317 290.644 173.521C291.112 173.036 291.587 172.564 292.067 172.104C286.661 171.192 280.824 171.203 274.945 171.215C262.453 171.239 249.772 171.263 240.625 162.43C222.324 144.758 250.655 100.876 276.224 125.567C293.612 142.359 299.721 153.151 303.476 164.013C308.883 161.324 314.423 160.024 319.455 160.238C320.815 160.135 322.492 160.399 324.41 160.994C325.615 161.325 326.77 161.762 327.863 162.308C333.884 164.97 341.435 170.037 348.87 176.732C350.258 177.982 351.59 179.242 352.861 180.502C359.418 173.754 370.211 173.586 376.993 180.135C383.789 186.698 383.985 197.519 377.432 204.305Z" fill="#191847"/>
<path fill-rule="evenodd" clip-rule="evenodd" d="M36.8032 511.476C36.8032 511.476 93.4102 541.117 137.079 550.399C180.748 559.681 223.717 541.698 223.717 541.698C223.717 541.698 168.493 511.886 130.38 503.784C92.2666 495.683 36.8032 511.476 36.8032 511.476Z" fill="#1F28CF"/>
<path fill-rule="evenodd" clip-rule="evenodd" d="M168.374 573.971C168.111 573.307 167.918 572.604 167.805 571.863C165.459 556.529 112.099 385.135 109.491 355.318L206.213 375.877C208.196 398.547 209.09 538.355 207.547 565.883C211.617 610.687 209.453 752.531 210.866 762.69C212.353 773.377 189.923 779.413 187.124 766.069C182.671 744.835 173.645 686.783 171.514 652.055C169.516 619.498 168.447 590.363 168.374 573.971Z" fill="#997659"/>
<path fill-rule="evenodd" clip-rule="evenodd" d="M85.2678 575.848C43.8798 577.434 -103.602 564.856 -114.06 565.578C-124.817 566.32 -129.263 543.509 -115.764 541.642C-94.285 538.671 -35.7822 533.693 -1.01374 533.978C26.9519 534.206 52.3587 534.943 69.3348 535.82C77.7555 489.363 94.943 377.233 104.197 354.193L189.777 372.384C180.904 394.478 111.532 554.705 101.691 570.127C98.426 575.686 91.9175 577.066 85.2678 575.848V575.848Z" fill="#B28B67"/>
<path fill-rule="evenodd" clip-rule="evenodd" d="M104.473 354.252C104.473 354.252 164.485 350.079 211.522 377.006C211.867 432.955 235.807 460.22 223.388 543.247C160.507 559.437 100.554 496.059 36.1505 511.193C27.6233 469.064 70.7857 381.145 104.473 354.252Z" fill="#2B44FF"/>
<path fill-rule="evenodd" clip-rule="evenodd" d="M301.797 496.301L286.87 430.32L258.227 444.878L284.327 497.201C284.098 520.75 285.643 531.994 288.964 530.931C291.764 530.035 292.408 527.478 293.001 525.123C293.463 523.289 293.894 521.576 295.29 520.867C298.477 519.247 305.996 526.243 312.848 533.186C319.699 540.13 320.396 535.009 320.026 531.86C316.427 520.869 310.35 509.016 301.797 496.301ZM24.9116 398.268C34.6465 392.481 102.87 318.767 102.87 318.767L132.772 338.353C132.772 338.353 46.8778 409.833 41.1081 413.872C33.6131 419.12 31.7832 432.628 30.5424 441.788C30.3504 443.205 30.1726 444.518 29.99 445.68C24.0624 444.75 23.467 440.835 22.8392 436.708C22.1302 432.046 21.38 427.113 12.8589 425.904C9.5667 425.436 6.27133 425.271 3.05178 425.11C-8.06922 424.554 -18.2856 424.042 -24.3398 411.268C-25.2996 409.243 -24.6422 404.392 -18.5215 404.242C-3.2728 403.869 20.1525 401.097 24.9116 398.268Z" fill="#B28B67"/>
<path fill-rule="evenodd" clip-rule="evenodd" d="M269.644 248.469L283.428 254.4C270.185 321.549 276.033 394.174 300.973 472.276L229.075 494.951C216.128 398.397 224.869 313.131 269.644 248.469Z" fill="#191847"/>
<path fill-rule="evenodd" clip-rule="evenodd" d="M114.469 369.032L224.929 440.765C224.929 440.765 247.073 322.628 289.383 257.477L259.282 230.88C205.782 255.934 164.758 302.915 114.469 369.032Z" fill="#DDE3E9"/>
<path fill-rule="evenodd" clip-rule="evenodd" d="M33.5589 383.702C134.026 255.443 258.55 230.405 258.55 230.405L258.562 230.446C258.571 230.441 258.58 230.436 258.59 230.431L260.765 231.843C264.582 234.513 272.343 240.05 272.343 240.05L265.472 268.257C239.459 311.109 170.398 447.323 170.398 447.323L98.0957 400.369C94.4267 406.288 90.8535 412.386 87.398 418.666L33.5589 383.702Z" fill="#2F3676"/>
<path fill-rule="evenodd" clip-rule="evenodd" d="M97.7415 400.941C113.678 375.138 131.442 352.729 149.242 333.569C134.563 360.488 118.647 394.014 117.885 414.023L97.7415 400.941Z" fill="black" fill-opacity="0.1"/>
<path fill-rule="evenodd" clip-rule="evenodd" d="M142.581 366.92L189.05 373.53L178.285 390.107L142.581 366.92Z" fill="white" fill-opacity="0.2"/>
</g>
<path fill-rule="evenodd" clip-rule="evenodd" d="M398.396 353.53C390.854 354.068 384.329 352.86 382.017 350.818C376.221 345.698 388.046 320.974 398.113 313.98C408.179 306.987 436.86 316.317 428.482 336.067C425.575 342.921 419.787 347.411 413.225 350.139L403.104 388.202L381.72 377.307L398.396 353.53Z" fill="#B28B67"/>
<path fill-rule="evenodd" clip-rule="evenodd" d="M395.437 295.812C396.673 294.481 398.543 293.755 400.35 294.178C400.788 294.28 401.209 294.446 401.602 294.667C401.742 294.745 401.762 294.807 401.88 294.741C401.968 294.692 402.062 294.511 402.127 294.434C402.329 294.194 402.546 293.966 402.778 293.754C403.569 293.032 404.536 292.529 405.556 292.21C407.463 291.613 409.621 291.629 411.486 292.384C412.507 292.797 413.397 293.451 414.16 294.24C414.554 294.648 414.914 295.09 415.25 295.547C415.352 295.684 415.623 296.244 415.771 296.291C415.934 296.344 416.428 296.124 416.598 296.092C418.707 295.702 420.812 296.198 422.693 297.174C424.816 298.276 426.814 299.428 427.93 301.633C428.166 302.1 428.371 302.584 428.55 303.075C428.645 303.333 428.731 303.595 428.805 303.86C428.85 304.02 428.89 304.181 428.926 304.343C428.986 304.618 428.928 304.669 429.22 304.647C430.341 304.563 431.456 304.825 432.392 305.457C432.948 305.832 433.434 306.304 433.862 306.817C434.008 306.992 434.277 307.53 434.475 307.634C434.67 307.738 435.246 307.66 435.487 307.688C436.791 307.842 438.024 308.345 439.082 309.12C440.173 309.919 441.1 310.989 441.773 312.158C442.097 312.72 442.342 313.285 442.443 313.927C442.486 314.205 442.51 314.486 442.58 314.759C442.621 314.918 442.757 315.129 442.738 315.295C442.749 315.196 444.343 315.361 444.485 315.392C445.244 315.559 445.908 315.942 446.454 316.491C447.48 317.526 448.077 318.976 448.473 320.353C448.676 321.06 448.798 321.79 448.843 322.523C448.865 322.875 448.869 323.227 448.857 323.579C448.852 323.75 448.807 323.944 448.829 324.111C448.857 324.326 448.93 324.367 449.093 324.538C449.922 325.406 450.537 326.473 450.825 327.638C451.117 328.818 451.064 330.059 450.716 331.218C450.695 331.287 450.57 331.549 450.59 331.602C450.616 331.674 450.829 331.756 450.902 331.805C451.152 331.971 451.392 332.152 451.621 332.347C452.043 332.705 452.425 333.11 452.756 333.554C454.045 335.285 454.462 337.511 454.149 339.617C453.82 341.827 452.707 343.984 451.007 345.451C450.732 345.688 450.439 345.904 450.128 346.092C449.938 346.207 449.904 346.19 449.881 346.402C449.857 346.637 449.898 346.899 449.89 347.137C449.864 347.915 449.731 348.685 449.514 349.431C449.159 350.655 448.667 351.881 447.884 352.898C447.521 353.37 447.091 353.793 446.595 354.126C446.342 354.296 446.073 354.442 445.792 354.561C445.646 354.622 445.498 354.676 445.347 354.724C445.26 354.751 445.159 354.762 445.078 354.8C444.88 354.892 444.92 354.753 444.866 355.01C444.792 355.37 444.829 355.781 444.792 356.149C444.754 356.528 444.702 356.905 444.639 357.281C444.512 358.042 444.346 358.798 444.109 359.533C443.655 360.944 442.91 362.314 441.684 363.197C441.159 363.574 440.552 363.83 439.916 363.946C439.604 364.002 439.286 364.026 438.969 364.016C438.806 364.012 438.625 363.953 438.501 364.05C438.367 364.153 438.324 364.473 438.269 364.636C437.783 366.059 437.168 367.5 436.112 368.598C435.139 369.61 433.801 370.26 432.407 370.43C429.702 370.762 427.027 369.302 425.465 367.138C425.058 366.574 424.721 365.959 424.473 365.31C422.497 366.29 420.111 365.012 418.627 363.69C416.779 362.042 415.822 359.686 415.829 357.234C413.644 358.189 411.084 356.214 411.057 353.956C411.05 353.403 411.159 352.853 411.34 352.333C411.435 352.059 411.589 351.813 411.691 351.546C411.822 351.205 411.767 350.781 411.802 350.405C411.87 349.674 412.04 348.969 412.368 348.309C412.54 347.964 412.753 347.653 412.959 347.329C413.144 347.038 413.205 346.71 413.31 346.383C413.812 346.752 414.554 346.944 415.15 347.048C415.735 347.15 416.418 346.982 416.966 346.789C418.239 346.342 419.326 345.46 420.251 344.502C422.28 342.398 423.491 339.251 421.682 336.608C420.84 335.377 417.343 333.597 415.792 333.204C414.162 332.79 410.862 335.171 410.626 335.432C410.48 335.594 410.387 335.839 410.151 335.877C409.633 335.958 409.251 335.163 409.092 334.785C408.817 334.134 408.748 333.418 408.729 332.718C408.689 331.194 408.818 329.647 409.114 328.152C409.343 326.999 409.69 325.868 409.818 324.696C409.945 323.53 409.806 322.36 409.18 321.344C408.499 320.238 407.528 319.344 406.636 318.413C405.752 317.49 404.929 316.494 404.501 315.274C404.407 315.005 404.324 314.729 404.281 314.448C404.248 314.226 404.291 313.856 404.167 313.662C403.972 313.361 403.357 313.573 403.042 313.603C401.485 313.751 399.972 314.293 398.6 315.028C397.236 315.759 396.035 316.52 394.866 317.516C393.999 318.256 393.144 319.333 392.068 319.752C391.587 319.94 389.209 318.989 388.625 318.315C388.042 317.64 387.613 316.442 387.614 315.829C387.616 315.201 387.835 314.622 388.221 314.131C388.448 313.842 388.731 313.608 388.963 313.328C389.158 313.094 389.34 312.871 389.592 312.693C390.072 312.358 390.658 312.24 391.232 312.358C390.954 311.608 390.815 310.808 390.843 310.008C390.873 309.177 391.025 308.225 391.325 307.45C391.569 306.82 391.98 306.247 392.57 305.9C393.189 305.535 393.977 305.493 394.676 305.425C394.192 304.385 393.893 303.268 393.759 302.131C393.497 299.92 393.875 297.493 395.437 295.812Z" fill="#191847"/>
<path fill-rule="evenodd" clip-rule="evenodd" d="M384 462L334.918 586.227L301.999 691.25H289L339.326 462L384 462Z" fill="#997659"/>
<path fill-rule="evenodd" clip-rule="evenodd" d="M393.883 462C394.406 505.654 402.028 564.427 403.246 567.149C404.464 569.87 487.324 636.358 487.324 636.358L478.371 645.939C478.371 645.939 380.603 588.934 376.079 581.331C371.555 573.728 356.826 503.763 345 462H393.883Z" fill="#B28B67"/>
<path fill-rule="evenodd" clip-rule="evenodd" d="M485.884 634.564C486.211 633.44 487.396 632.771 488.496 633.173C490.502 633.906 493.436 635.092 494.736 636.183C496.808 637.922 500.204 641.948 500.204 641.948C498.187 644.352 463.949 685.154 463.949 685.154C463.949 685.154 456.968 682.166 459.569 678.165C462.17 674.164 463.826 671.464 463.826 671.464L471.724 643.87C471.879 643.328 472.451 643.022 472.988 643.192L477.202 644.529C477.202 644.529 481.588 642.485 483.35 640.384C484.423 639.106 485.335 636.448 485.884 634.564Z" fill="#E4E4E4"/>
<path fill-rule="evenodd" clip-rule="evenodd" d="M304.55 685.284C305.622 684.813 306.896 685.29 307.295 686.391C308.023 688.398 309 691.409 309 693.106C309 695.811 308.099 701 308.099 701C304.961 701 251.697 701 251.697 701C251.697 701 249.498 693.732 254.235 693.152C258.972 692.573 262.105 692.106 262.105 692.106L288.32 680.419C288.835 680.189 289.437 680.43 289.652 680.951L291.337 685.039C291.337 685.039 295.722 687.085 298.463 687.085C300.132 687.085 302.754 686.074 304.55 685.284Z" fill="#E4E4E4"/>
<path fill-rule="evenodd" clip-rule="evenodd" d="M351 680.433L289.196 673.725L335 462H390.356L351 680.433Z" fill="#69A1AC"/>
<path fill-rule="evenodd" clip-rule="evenodd" d="M474.54 620.9L434 668.886C434 668.886 369.95 598.932 359.317 577.596C348.685 556.26 340.201 462 340.201 462H402.522C402.522 462 407.156 544.926 408.769 548.785C410.383 552.644 474.54 620.9 474.54 620.9Z" fill="#89C5CC"/>
<path fill-rule="evenodd" clip-rule="evenodd" d="M282.325 398.141L313.634 422.347L298.821 433.93L277.524 407.176C264.974 401.481 259.392 397.885 260.777 396.388C261.945 395.125 263.461 395.416 264.857 395.683C265.945 395.891 266.96 396.086 267.682 395.521C269.33 394.233 267.48 388.52 265.492 383.175C263.504 377.829 266.393 378.725 267.972 379.698C272.912 384.32 277.696 390.468 282.325 398.141ZM433.847 461.027L454.714 462.039C459.337 500.943 462.52 522.423 464.263 526.482C465.541 529.458 475.665 538.826 482.747 544.247C485.589 546.422 484.234 548.945 483.084 549.573C475.833 553.538 470.827 550.267 465.378 546.705C463.8 545.674 462.185 544.619 460.468 543.708C456.023 541.35 453.974 543.427 452.037 545.39C450.323 547.128 448.696 548.776 445.574 547.178C445.887 546.565 446.254 545.883 446.65 545.146C449.21 540.383 452.985 533.36 451.244 528.298C450.351 525.7 444.552 503.277 433.847 461.027Z" fill="#B28B67"/>
<path fill-rule="evenodd" clip-rule="evenodd" d="M399.338 369.217L391.306 365.686C368.611 378.857 350.535 419.587 336.95 422.188C324.107 424.647 309.07 415.42 291.404 403.618L282.152 415.412C295.026 438.88 328.565 464.357 346.081 458.954C374.087 450.315 392.802 399.188 399.338 369.217Z" fill="#DB2721"/>
<path fill-rule="evenodd" clip-rule="evenodd" d="M409.624 483.777C409.624 483.777 359.161 471.195 335.385 465.267C331.993 464.421 333.853 459.682 334.96 457.332C347.732 430.216 377.492 404.974 387.617 364.366L409.868 366.347C420.477 399.25 417.858 435.85 409.624 483.777Z" fill="#DDE3E9"/>
<path fill-rule="evenodd" clip-rule="evenodd" d="M411.005 366.631L411.249 366.692C451.901 408.266 469.488 461.385 464.013 526.049L447.692 525.217C440.378 510.638 432.557 487.812 424.229 456.74C424.773 474.342 423.957 492.054 421.038 508.265L354.212 491.604C349.426 455.685 402.77 364.578 402.77 364.578L407.384 365.728L411.005 366.631Z" fill="#FF4133"/>
<defs>
<filter id="filter0_d" x="0" y="98.0363" width="336.855" height="592.445" filterUnits="userSpaceOnUse" color-interpolation-filters="sRGB">
<feFlood flood-opacity="0" result="BackgroundImageFix"/>
<feColorMatrix in="SourceAlpha" type="matrix" values="0 0 0 0 0 0 0 0 0 0 0 0 0 0 0 0 0 0 127 0"/>
<feOffset dx="-10" dy="22"/>
<feGaussianBlur stdDeviation="17"/>
<feColorMatrix type="matrix" values="0 0 0 0 0 0 0 0 0 0 0 0 0 0 0 0 0 0 0.1 0"/>
<feBlend mode="normal" in2="BackgroundImageFix" result="effect1_dropShadow"/>
<feBlend mode="normal" in="SourceGraphic" in2="effect1_dropShadow" result="shape"/>
</filter>
</defs>
</svg>
