<svg width="363" height="314" viewBox="0 0 363 314" fill="none" xmlns="http://www.w3.org/2000/svg">
<rect width="363" height="314" fill="#2B44FF"/>
<path d="M245.952 254.08C242.592 258.016 238.656 260.992 234.144 263.008C229.728 265.024 224.88 266.032 219.6 266.032C212.688 266.032 206.352 264.448 200.592 261.28C194.832 258.208 188.256 252.832 180.864 245.152C171.552 244.384 163.2 241.696 155.808 237.088C148.416 232.384 142.656 226.288 138.528 218.8C134.4 211.216 132.336 202.816 132.336 193.6C132.336 183.808 134.688 174.976 139.392 167.104C144.096 159.136 150.576 152.944 158.832 148.528C167.088 144.016 176.352 141.76 186.624 141.76C196.896 141.76 206.16 144.016 214.416 148.528C222.672 152.944 229.152 159.088 233.856 166.96C238.56 174.832 240.912 183.712 240.912 193.6C240.912 201.568 239.328 208.96 236.16 215.776C232.992 222.496 228.576 228.256 222.912 233.056C217.248 237.76 210.672 241.168 203.184 243.28C205.968 246.256 208.704 248.416 211.392 249.76C214.08 251.104 216.96 251.776 220.032 251.776C226.656 251.776 232.416 249.088 237.312 243.712L245.952 254.08ZM151.2 193.6C151.2 200.32 152.736 206.416 155.808 211.888C158.88 217.264 163.104 221.488 168.48 224.56C173.856 227.536 179.904 229.024 186.624 229.024C193.344 229.024 199.392 227.536 204.768 224.56C210.144 221.488 214.368 217.264 217.44 211.888C220.512 206.416 222.048 200.32 222.048 193.6C222.048 186.88 220.512 180.832 217.44 175.456C214.368 169.984 210.144 165.76 204.768 162.784C199.392 159.712 193.344 158.176 186.624 158.176C179.904 158.176 173.856 159.712 168.48 162.784C163.104 165.76 158.88 169.984 155.808 175.456C152.736 180.832 151.2 186.88 151.2 193.6ZM292.003 245.44C284.227 245.44 276.691 244.336 269.395 242.128C262.195 239.92 256.483 236.992 252.259 233.344L258.739 218.8C262.867 222.064 267.907 224.752 273.859 226.864C279.907 228.88 285.955 229.888 292.003 229.888C299.491 229.888 305.059 228.688 308.707 226.288C312.451 223.888 314.323 220.72 314.323 216.784C314.323 213.904 313.267 211.552 311.155 209.728C309.139 207.808 306.547 206.32 303.379 205.264C300.211 204.208 295.891 203.008 290.419 201.664C282.739 199.84 276.499 198.016 271.699 196.192C266.995 194.368 262.915 191.536 259.459 187.696C256.099 183.76 254.419 178.48 254.419 171.856C254.419 166.288 255.907 161.248 258.883 156.736C261.955 152.128 266.515 148.48 272.563 145.792C278.707 143.104 286.195 141.76 295.027 141.76C301.171 141.76 307.219 142.528 313.171 144.064C319.123 145.6 324.259 147.808 328.579 150.688L322.675 165.232C318.259 162.64 313.651 160.672 308.851 159.328C304.051 157.984 299.395 157.312 294.883 157.312C287.491 157.312 281.971 158.56 278.323 161.056C274.771 163.552 272.995 166.864 272.995 170.992C272.995 173.872 274.003 176.224 276.019 178.048C278.131 179.872 280.771 181.312 283.939 182.368C287.107 183.424 291.427 184.624 296.899 185.968C304.387 187.696 310.531 189.52 315.331 191.44C320.131 193.264 324.211 196.096 327.571 199.936C331.027 203.776 332.755 208.96 332.755 215.488C332.755 221.056 331.219 226.096 328.147 230.608C325.171 235.12 320.611 238.72 314.467 241.408C308.323 244.096 300.835 245.44 292.003 245.44Z" fill="white"/>
<path d="M168.04 194.66V201.94H166.79V199.35C166.37 199.83 165.8 200.07 165.08 200.07C164.56 200.07 164.093 199.957 163.68 199.73C163.273 199.503 162.953 199.183 162.72 198.77C162.493 198.357 162.38 197.877 162.38 197.33C162.38 196.79 162.497 196.313 162.73 195.9C162.963 195.487 163.283 195.167 163.69 194.94C164.097 194.713 164.56 194.6 165.08 194.6C165.447 194.6 165.78 194.663 166.08 194.79C166.387 194.917 166.643 195.107 166.85 195.36V194.66H168.04ZM165.22 199C165.68 199 166.06 198.847 166.36 198.54C166.66 198.233 166.81 197.83 166.81 197.33C166.81 196.83 166.66 196.427 166.36 196.12C166.06 195.813 165.68 195.66 165.22 195.66C164.76 195.66 164.38 195.813 164.08 196.12C163.787 196.427 163.64 196.83 163.64 197.33C163.64 197.83 163.787 198.233 164.08 198.54C164.38 198.847 164.76 199 165.22 199ZM174.845 194.66V200H173.655V199.32C173.455 199.56 173.205 199.747 172.905 199.88C172.605 200.007 172.282 200.07 171.935 200.07C171.222 200.07 170.659 199.873 170.245 199.48C169.839 199.08 169.635 198.49 169.635 197.71V194.66H170.885V197.54C170.885 198.02 170.992 198.38 171.205 198.62C171.425 198.853 171.735 198.97 172.135 198.97C172.582 198.97 172.935 198.833 173.195 198.56C173.462 198.28 173.595 197.88 173.595 197.36V194.66H174.845ZM176.482 194.66H177.732V200H176.482V194.66ZM177.112 193.78C176.885 193.78 176.695 193.71 176.542 193.57C176.389 193.423 176.312 193.243 176.312 193.03C176.312 192.817 176.389 192.64 176.542 192.5C176.695 192.353 176.885 192.28 177.112 192.28C177.339 192.28 177.529 192.35 177.682 192.49C177.835 192.623 177.912 192.793 177.912 193C177.912 193.22 177.835 193.407 177.682 193.56C177.535 193.707 177.345 193.78 177.112 193.78ZM182.403 194.6C183.076 194.6 183.616 194.797 184.023 195.19C184.429 195.583 184.633 196.167 184.633 196.94V200H183.383V197.1C183.383 196.633 183.273 196.283 183.053 196.05C182.833 195.81 182.519 195.69 182.113 195.69C181.653 195.69 181.289 195.83 181.023 196.11C180.756 196.383 180.623 196.78 180.623 197.3V200H179.373V194.66H180.563V195.35C180.769 195.103 181.029 194.917 181.343 194.79C181.656 194.663 182.009 194.6 182.403 194.6ZM189.428 199.71C189.282 199.83 189.102 199.92 188.888 199.98C188.682 200.04 188.462 200.07 188.228 200.07C187.642 200.07 187.188 199.917 186.868 199.61C186.548 199.303 186.388 198.857 186.388 198.27V195.7H185.508V194.7H186.388V193.48H187.638V194.7H189.068V195.7H187.638V198.24C187.638 198.5 187.702 198.7 187.828 198.84C187.955 198.973 188.138 199.04 188.378 199.04C188.658 199.04 188.892 198.967 189.078 198.82L189.428 199.71ZM192.107 200.07C191.673 200.07 191.25 200.013 190.837 199.9C190.423 199.787 190.093 199.643 189.847 199.47L190.327 198.52C190.567 198.68 190.853 198.81 191.187 198.91C191.527 199.003 191.86 199.05 192.187 199.05C192.933 199.05 193.307 198.853 193.307 198.46C193.307 198.273 193.21 198.143 193.017 198.07C192.83 197.997 192.527 197.927 192.107 197.86C191.667 197.793 191.307 197.717 191.027 197.63C190.753 197.543 190.513 197.393 190.307 197.18C190.107 196.96 190.007 196.657 190.007 196.27C190.007 195.763 190.217 195.36 190.637 195.06C191.063 194.753 191.637 194.6 192.357 194.6C192.723 194.6 193.09 194.643 193.457 194.73C193.823 194.81 194.123 194.92 194.357 195.06L193.877 196.01C193.423 195.743 192.913 195.61 192.347 195.61C191.98 195.61 191.7 195.667 191.507 195.78C191.32 195.887 191.227 196.03 191.227 196.21C191.227 196.41 191.327 196.553 191.527 196.64C191.733 196.72 192.05 196.797 192.477 196.87C192.903 196.937 193.253 197.013 193.527 197.1C193.8 197.187 194.033 197.333 194.227 197.54C194.427 197.747 194.527 198.04 194.527 198.42C194.527 198.92 194.31 199.32 193.877 199.62C193.443 199.92 192.853 200.07 192.107 200.07ZM198.813 199.71C198.667 199.83 198.487 199.92 198.273 199.98C198.067 200.04 197.847 200.07 197.613 200.07C197.027 200.07 196.573 199.917 196.253 199.61C195.933 199.303 195.773 198.857 195.773 198.27V195.7H194.893V194.7H195.773V193.48H197.023V194.7H198.453V195.7H197.023V198.24C197.023 198.5 197.087 198.7 197.213 198.84C197.34 198.973 197.523 199.04 197.763 199.04C198.043 199.04 198.277 198.967 198.463 198.82L198.813 199.71ZM204.744 194.66L202.244 200.43C202.01 201.01 201.727 201.417 201.394 201.65C201.06 201.89 200.657 202.01 200.184 202.01C199.917 202.01 199.654 201.967 199.394 201.88C199.134 201.793 198.92 201.673 198.754 201.52L199.254 200.6C199.374 200.713 199.514 200.803 199.674 200.87C199.84 200.937 200.007 200.97 200.174 200.97C200.394 200.97 200.574 200.913 200.714 200.8C200.86 200.687 200.994 200.497 201.114 200.23L201.204 200.02L198.874 194.66H200.174L201.854 198.61L203.544 194.66H204.744ZM205.525 192.58H206.775V200H205.525V192.58ZM213.436 197.36C213.436 197.447 213.429 197.57 213.416 197.73H209.226C209.299 198.123 209.489 198.437 209.796 198.67C210.109 198.897 210.496 199.01 210.956 199.01C211.542 199.01 212.026 198.817 212.406 198.43L213.076 199.2C212.836 199.487 212.532 199.703 212.166 199.85C211.799 199.997 211.386 200.07 210.926 200.07C210.339 200.07 209.822 199.953 209.376 199.72C208.929 199.487 208.582 199.163 208.336 198.75C208.096 198.33 207.976 197.857 207.976 197.33C207.976 196.81 208.092 196.343 208.326 195.93C208.566 195.51 208.896 195.183 209.316 194.95C209.736 194.717 210.209 194.6 210.736 194.6C211.256 194.6 211.719 194.717 212.126 194.95C212.539 195.177 212.859 195.5 213.086 195.92C213.319 196.333 213.436 196.813 213.436 197.36ZM210.736 195.6C210.336 195.6 209.996 195.72 209.716 195.96C209.442 196.193 209.276 196.507 209.216 196.9H212.246C212.192 196.513 212.029 196.2 211.756 195.96C211.482 195.72 211.142 195.6 210.736 195.6Z" fill="white"/>
</svg>
